<?xml version="1.0" encoding="us-ascii" standalone="no"?><svg xmlns="http://www.w3.org/2000/svg" xmlns:xlink="http://www.w3.org/1999/xlink" contentStyleType="text/css" height="338px" preserveAspectRatio="none" style="width:576px;height:338px;background:#FFFFFF;" version="1.1" viewBox="0 0 576 338" width="576px" zoomAndPan="magnify"><defs/><g><rect fill="#ADD8E6" height="326.6563" style="stroke:#181818;stroke-width:0.5;" width="91" x="186.5" y="6"/><text fill="#000000" font-family="sans-serif" font-size="13" font-weight="bold" lengthAdjust="spacing" textLength="85" x="189.5" y="18.0669">Progressor</text><line style="stroke:#181818;stroke-width:0.5;stroke-dasharray:5.0,5.0;" x1="22" x2="22" y1="56.4297" y2="298.3594"/><line style="stroke:#181818;stroke-width:0.5;stroke-dasharray:5.0,5.0;" x1="210" x2="210" y1="56.4297" y2="298.3594"/><line style="stroke:#181818;stroke-width:0.5;stroke-dasharray:5.0,5.0;" x1="253" x2="253" y1="56.4297" y2="298.3594"/><line style="stroke:#181818;stroke-width:0.5;stroke-dasharray:5.0,5.0;" x1="554" x2="554" y1="56.4297" y2="298.3594"/><rect fill="#E2E2F0" height="30.2969" rx="2.5" ry="2.5" style="stroke:#181818;stroke-width:0.5;" width="34" x="5" y="25.1328"/><text fill="#000000" font-family="sans-serif" font-size="14" lengthAdjust="spacing" textLength="20" x="12" y="45.1279">AC</text><rect fill="#E2E2F0" height="30.2969" rx="2.5" ry="2.5" style="stroke:#181818;stroke-width:0.5;" width="34" x="5" y="297.3594"/><text fill="#000000" font-family="sans-serif" font-size="14" lengthAdjust="spacing" textLength="20" x="12" y="317.3545">AC</text><rect fill="#E2E2F0" height="30.2969" rx="2.5" ry="2.5" style="stroke:#181818;stroke-width:0.5;" width="33" x="194" y="25.1328"/><text fill="#000000" font-family="sans-serif" font-size="14" lengthAdjust="spacing" textLength="19" x="201" y="45.1279">AS</text><rect fill="#E2E2F0" height="30.2969" rx="2.5" ry="2.5" style="stroke:#181818;stroke-width:0.5;" width="33" x="194" y="297.3594"/><text fill="#000000" font-family="sans-serif" font-size="14" lengthAdjust="spacing" textLength="19" x="201" y="317.3545">AS</text><rect fill="#E2E2F0" height="30.2969" rx="2.5" ry="2.5" style="stroke:#181818;stroke-width:0.5;" width="33" x="237" y="25.1328"/><text fill="#000000" font-family="sans-serif" font-size="14" lengthAdjust="spacing" textLength="19" x="244" y="45.1279">PC</text><rect fill="#E2E2F0" height="30.2969" rx="2.5" ry="2.5" style="stroke:#181818;stroke-width:0.5;" width="33" x="237" y="297.3594"/><text fill="#000000" font-family="sans-serif" font-size="14" lengthAdjust="spacing" textLength="19" x="244" y="317.3545">PC</text><rect fill="#E2E2F0" height="30.2969" rx="2.5" ry="2.5" style="stroke:#181818;stroke-width:0.5;" width="32" x="538" y="25.1328"/><text fill="#000000" font-family="sans-serif" font-size="14" lengthAdjust="spacing" textLength="18" x="545" y="45.1279">PS</text><rect fill="#E2E2F0" height="30.2969" rx="2.5" ry="2.5" style="stroke:#181818;stroke-width:0.5;" width="32" x="538" y="297.3594"/><text fill="#000000" font-family="sans-serif" font-size="14" lengthAdjust="spacing" textLength="18" x="545" y="317.3545">PS</text><polygon fill="#181818" points="198.5,83.5625,208.5,87.5625,198.5,91.5625,202.5,87.5625" style="stroke:#181818;stroke-width:1.0;"/><line style="stroke:#181818;stroke-width:1.0;" x1="22" x2="204.5" y1="87.5625" y2="87.5625"/><text fill="#000000" font-family="sans-serif" font-size="13" lengthAdjust="spacing" textLength="161" x="29" y="82.4966">Automaton.Call(CallArgs)</text><polygon fill="#181818" points="542,112.6953,552,116.6953,542,120.6953,546,116.6953" style="stroke:#181818;stroke-width:1.0;"/><line style="stroke:#181818;stroke-width:1.0;" x1="253.5" x2="548" y1="116.6953" y2="116.6953"/><text fill="#000000" font-family="sans-serif" font-size="13" lengthAdjust="spacing" textLength="240" x="260.5" y="111.6294">Processor.ProcessCall(State,CallArgs)</text><polygon fill="#181818" points="264.5,141.8281,254.5,145.8281,264.5,149.8281,260.5,145.8281" style="stroke:#181818;stroke-width:1.0;"/><line style="stroke:#181818;stroke-width:1.0;" x1="258.5" x2="553" y1="145.8281" y2="145.8281"/><text fill="#000000" font-family="sans-serif" font-size="13" lengthAdjust="spacing" textLength="273" x="270.5" y="140.7622">CallResult(CallResponse,Changes,[Action])</text><path d="M176,158.8281 L176,183.8281 L288,183.8281 L288,168.8281 L278,158.8281 L176,158.8281 " fill="#FFAAAA" style="stroke:#181818;stroke-width:0.5;"/><path d="M278,158.8281 L278,168.8281 L288,168.8281 L278,158.8281 " fill="#FFAAAA" style="stroke:#181818;stroke-width:0.5;"/><text fill="#000000" font-family="sans-serif" font-size="13" lengthAdjust="spacing" textLength="91" x="182" y="175.895">store changes</text><path d="M171,193.9609 L171,218.9609 L292,218.9609 L292,203.9609 L282,193.9609 L171,193.9609 " fill="#FFAAAA" style="stroke:#181818;stroke-width:0.5;"/><path d="M282,193.9609 L282,203.9609 L292,203.9609 L282,193.9609 " fill="#FFAAAA" style="stroke:#181818;stroke-width:0.5;"/><text fill="#000000" font-family="sans-serif" font-size="13" lengthAdjust="spacing" textLength="100" x="177" y="211.0278">schedule action</text><path d="M196,229.0938 L196,254.0938 L267,254.0938 L267,239.0938 L257,229.0938 L196,229.0938 " fill="#FFAAAA" style="stroke:#181818;stroke-width:0.5;"/><path d="M257,229.0938 L257,239.0938 L267,239.0938 L257,229.0938 " fill="#FFAAAA" style="stroke:#181818;stroke-width:0.5;"/><text fill="#000000" font-family="sans-serif" font-size="13" lengthAdjust="spacing" textLength="37" x="208.5" y="246.1606">notify</text><polygon fill="#181818" points="33,276.3594,23,280.3594,33,284.3594,29,280.3594" style="stroke:#181818;stroke-width:1.0;"/><line style="stroke:#181818;stroke-width:1.0;" x1="27" x2="209.5" y1="280.3594" y2="280.3594"/><text fill="#000000" font-family="sans-serif" font-size="13" lengthAdjust="spacing" textLength="86" x="39" y="275.2935">CallResponse</text><!--SRC=[VO_1Yi8m48RlynI3NboeFe38GhRGqnxAzYWUOfnj0zbCIQQBlhtJAAWNSmYJoVTb_emsYNT-j57Gr017FkEYJTmdofdJ0fVVlX_aAqm4upFRlHpR6YYUK6ruxNS0fiRrfmguHJC9_rdXkAbj2AjvCwdF7m1jWTePqkck3D_Sgy9sOeMgXw72RdqJvkOFvId8wbwE7BF2WuqzvMfld7YE1nqJMGZvdvBcgJGrBfl6wDfY5aw4xgQyuzn0foaGslBe6r9l_E-b_5-JcgUa9TuL]--></g></svg>