<?xml version="1.0" encoding="us-ascii" standalone="no"?><svg xmlns="http://www.w3.org/2000/svg" xmlns:xlink="http://www.w3.org/1999/xlink" contentStyleType="text/css" height="338px" preserveAspectRatio="none" style="width:671px;height:338px;background:#FFFFFF;" version="1.1" viewBox="0 0 671 338" width="671px" zoomAndPan="magnify"><defs/><g><rect fill="#ADD8E6" height="326.6563" style="stroke:#181818;stroke-width:0.5;" width="91" x="250.5" y="6"/><text fill="#000000" font-family="sans-serif" font-size="13" font-weight="bold" lengthAdjust="spacing" textLength="85" x="253.5" y="18.0669">Progressor</text><line style="stroke:#181818;stroke-width:0.5;stroke-dasharray:5.0,5.0;" x1="22" x2="22" y1="56.4297" y2="298.3594"/><line style="stroke:#181818;stroke-width:0.5;stroke-dasharray:5.0,5.0;" x1="274" x2="274" y1="56.4297" y2="298.3594"/><line style="stroke:#181818;stroke-width:0.5;stroke-dasharray:5.0,5.0;" x1="317" x2="317" y1="56.4297" y2="298.3594"/><line style="stroke:#181818;stroke-width:0.5;stroke-dasharray:5.0,5.0;" x1="649" x2="649" y1="56.4297" y2="298.3594"/><rect fill="#E2E2F0" height="30.2969" rx="2.5" ry="2.5" style="stroke:#181818;stroke-width:0.5;" width="34" x="5" y="25.1328"/><text fill="#000000" font-family="sans-serif" font-size="14" lengthAdjust="spacing" textLength="20" x="12" y="45.1279">AC</text><rect fill="#E2E2F0" height="30.2969" rx="2.5" ry="2.5" style="stroke:#181818;stroke-width:0.5;" width="34" x="5" y="297.3594"/><text fill="#000000" font-family="sans-serif" font-size="14" lengthAdjust="spacing" textLength="20" x="12" y="317.3545">AC</text><rect fill="#E2E2F0" height="30.2969" rx="2.5" ry="2.5" style="stroke:#181818;stroke-width:0.5;" width="33" x="258" y="25.1328"/><text fill="#000000" font-family="sans-serif" font-size="14" lengthAdjust="spacing" textLength="19" x="265" y="45.1279">AS</text><rect fill="#E2E2F0" height="30.2969" rx="2.5" ry="2.5" style="stroke:#181818;stroke-width:0.5;" width="33" x="258" y="297.3594"/><text fill="#000000" font-family="sans-serif" font-size="14" lengthAdjust="spacing" textLength="19" x="265" y="317.3545">AS</text><rect fill="#E2E2F0" height="30.2969" rx="2.5" ry="2.5" style="stroke:#181818;stroke-width:0.5;" width="33" x="301" y="25.1328"/><text fill="#000000" font-family="sans-serif" font-size="14" lengthAdjust="spacing" textLength="19" x="308" y="45.1279">PC</text><rect fill="#E2E2F0" height="30.2969" rx="2.5" ry="2.5" style="stroke:#181818;stroke-width:0.5;" width="33" x="301" y="297.3594"/><text fill="#000000" font-family="sans-serif" font-size="14" lengthAdjust="spacing" textLength="19" x="308" y="317.3545">PC</text><rect fill="#E2E2F0" height="30.2969" rx="2.5" ry="2.5" style="stroke:#181818;stroke-width:0.5;" width="32" x="633" y="25.1328"/><text fill="#000000" font-family="sans-serif" font-size="14" lengthAdjust="spacing" textLength="18" x="640" y="45.1279">PS</text><rect fill="#E2E2F0" height="30.2969" rx="2.5" ry="2.5" style="stroke:#181818;stroke-width:0.5;" width="32" x="633" y="297.3594"/><text fill="#000000" font-family="sans-serif" font-size="14" lengthAdjust="spacing" textLength="18" x="640" y="317.3545">PS</text><polygon fill="#181818" points="262.5,83.5625,272.5,87.5625,262.5,91.5625,266.5,87.5625" style="stroke:#181818;stroke-width:1.0;"/><line style="stroke:#181818;stroke-width:1.0;" x1="22" x2="268.5" y1="87.5625" y2="87.5625"/><text fill="#000000" font-family="sans-serif" font-size="13" lengthAdjust="spacing" textLength="225" x="29" y="82.4966">Automaton.Notify(NotificationArgs)</text><polygon fill="#181818" points="637,112.6953,647,116.6953,637,120.6953,641,116.6953" style="stroke:#181818;stroke-width:1.0;"/><line style="stroke:#181818;stroke-width:1.0;" x1="317.5" x2="643" y1="116.6953" y2="116.6953"/><text fill="#000000" font-family="sans-serif" font-size="13" lengthAdjust="spacing" textLength="304" x="324.5" y="111.6294">Processor.ProcessSignal(State,NotificationArgs)</text><polygon fill="#181818" points="328.5,141.8281,318.5,145.8281,328.5,149.8281,324.5,145.8281" style="stroke:#181818;stroke-width:1.0;"/><line style="stroke:#181818;stroke-width:1.0;" x1="322.5" x2="648" y1="145.8281" y2="145.8281"/><text fill="#000000" font-family="sans-serif" font-size="13" lengthAdjust="spacing" textLength="198" x="334.5" y="140.7622">SignalResult(Changes,[Action])</text><path d="M240,158.8281 L240,183.8281 L352,183.8281 L352,168.8281 L342,158.8281 L240,158.8281 " fill="#FFAAAA" style="stroke:#181818;stroke-width:0.5;"/><path d="M342,158.8281 L342,168.8281 L352,168.8281 L342,158.8281 " fill="#FFAAAA" style="stroke:#181818;stroke-width:0.5;"/><text fill="#000000" font-family="sans-serif" font-size="13" lengthAdjust="spacing" textLength="91" x="246" y="175.895">store changes</text><path d="M235,193.9609 L235,218.9609 L356,218.9609 L356,203.9609 L346,193.9609 L235,193.9609 " fill="#FFAAAA" style="stroke:#181818;stroke-width:0.5;"/><path d="M346,193.9609 L346,203.9609 L356,203.9609 L346,193.9609 " fill="#FFAAAA" style="stroke:#181818;stroke-width:0.5;"/><text fill="#000000" font-family="sans-serif" font-size="13" lengthAdjust="spacing" textLength="100" x="241" y="211.0278">schedule action</text><path d="M260,229.0938 L260,254.0938 L331,254.0938 L331,239.0938 L321,229.0938 L260,229.0938 " fill="#FFAAAA" style="stroke:#181818;stroke-width:0.5;"/><path d="M321,229.0938 L321,239.0938 L331,239.0938 L321,229.0938 " fill="#FFAAAA" style="stroke:#181818;stroke-width:0.5;"/><text fill="#000000" font-family="sans-serif" font-size="13" lengthAdjust="spacing" textLength="37" x="272.5" y="246.1606">notify</text><polygon fill="#181818" points="33,276.3594,23,280.3594,33,284.3594,29,280.3594" style="stroke:#181818;stroke-width:1.0;"/><line style="stroke:#181818;stroke-width:1.0;" x1="27" x2="273.5" y1="280.3594" y2="280.3594"/><text fill="#000000" font-family="sans-serif" font-size="13" lengthAdjust="spacing" textLength="15" x="39" y="275.2935">ok</text><!--SRC=[VP31QiCm38RlUWhHNZ98-m1b5Dn0JsE4vJXsS5tLCKsjO2jZU_kfJWyjW_fYotoV_KkZJH9S66qKD0t0WNzmqIRsYNBcjC3bM_2zx8Q9OBndkuUoRO3Y4TM6n_iEm3Iusgg06pIJyCKAn_KxIpZzLcKBpahWQ9BFBm1jmTihhZbSYR6-dRhWensgJgnG_TzLzNKrgpFvGNaQf6fw6ptb-jEuA_oblqGMGlwcfC5gZO_B_Txesc0MJeHkLfvnhgVZD13QykWJCfPUoo0qNXa4d_y0]--></g></svg>