<?xml version="1.0" encoding="us-ascii" standalone="no"?><svg xmlns="http://www.w3.org/2000/svg" xmlns:xlink="http://www.w3.org/1999/xlink" contentStyleType="text/css" height="338px" preserveAspectRatio="none" style="width:520px;height:338px;background:#FFFFFF;" version="1.1" viewBox="0 0 520 338" width="520px" zoomAndPan="magnify"><defs/><g><rect fill="#ADD8E6" height="326.6563" style="stroke:#181818;stroke-width:0.5;" width="91" x="190.5" y="6"/><text fill="#000000" font-family="sans-serif" font-size="13" font-weight="bold" lengthAdjust="spacing" textLength="85" x="193.5" y="18.0669">Progressor</text><line style="stroke:#181818;stroke-width:0.5;stroke-dasharray:5.0,5.0;" x1="22" x2="22" y1="56.4297" y2="298.3594"/><line style="stroke:#181818;stroke-width:0.5;stroke-dasharray:5.0,5.0;" x1="214" x2="214" y1="56.4297" y2="298.3594"/><line style="stroke:#181818;stroke-width:0.5;stroke-dasharray:5.0,5.0;" x1="257" x2="257" y1="56.4297" y2="298.3594"/><line style="stroke:#181818;stroke-width:0.5;stroke-dasharray:5.0,5.0;" x1="498" x2="498" y1="56.4297" y2="298.3594"/><rect fill="#E2E2F0" height="30.2969" rx="2.5" ry="2.5" style="stroke:#181818;stroke-width:0.5;" width="34" x="5" y="25.1328"/><text fill="#000000" font-family="sans-serif" font-size="14" lengthAdjust="spacing" textLength="20" x="12" y="45.1279">AC</text><rect fill="#E2E2F0" height="30.2969" rx="2.5" ry="2.5" style="stroke:#181818;stroke-width:0.5;" width="34" x="5" y="297.3594"/><text fill="#000000" font-family="sans-serif" font-size="14" lengthAdjust="spacing" textLength="20" x="12" y="317.3545">AC</text><rect fill="#E2E2F0" height="30.2969" rx="2.5" ry="2.5" style="stroke:#181818;stroke-width:0.5;" width="33" x="198" y="25.1328"/><text fill="#000000" font-family="sans-serif" font-size="14" lengthAdjust="spacing" textLength="19" x="205" y="45.1279">AS</text><rect fill="#E2E2F0" height="30.2969" rx="2.5" ry="2.5" style="stroke:#181818;stroke-width:0.5;" width="33" x="198" y="297.3594"/><text fill="#000000" font-family="sans-serif" font-size="14" lengthAdjust="spacing" textLength="19" x="205" y="317.3545">AS</text><rect fill="#E2E2F0" height="30.2969" rx="2.5" ry="2.5" style="stroke:#181818;stroke-width:0.5;" width="33" x="241" y="25.1328"/><text fill="#000000" font-family="sans-serif" font-size="14" lengthAdjust="spacing" textLength="19" x="248" y="45.1279">PC</text><rect fill="#E2E2F0" height="30.2969" rx="2.5" ry="2.5" style="stroke:#181818;stroke-width:0.5;" width="33" x="241" y="297.3594"/><text fill="#000000" font-family="sans-serif" font-size="14" lengthAdjust="spacing" textLength="19" x="248" y="317.3545">PC</text><rect fill="#E2E2F0" height="30.2969" rx="2.5" ry="2.5" style="stroke:#181818;stroke-width:0.5;" width="32" x="482" y="25.1328"/><text fill="#000000" font-family="sans-serif" font-size="14" lengthAdjust="spacing" textLength="18" x="489" y="45.1279">PS</text><rect fill="#E2E2F0" height="30.2969" rx="2.5" ry="2.5" style="stroke:#181818;stroke-width:0.5;" width="32" x="482" y="297.3594"/><text fill="#000000" font-family="sans-serif" font-size="14" lengthAdjust="spacing" textLength="18" x="489" y="317.3545">PS</text><polygon fill="#181818" points="202.5,83.5625,212.5,87.5625,202.5,91.5625,206.5,87.5625" style="stroke:#181818;stroke-width:1.0;"/><line style="stroke:#181818;stroke-width:1.0;" x1="22" x2="208.5" y1="87.5625" y2="87.5625"/><text fill="#000000" font-family="sans-serif" font-size="13" lengthAdjust="spacing" textLength="165" x="29" y="82.4966">Automaton.Start(InitArgs)</text><polygon fill="#181818" points="486,112.6953,496,116.6953,486,120.6953,490,116.6953" style="stroke:#181818;stroke-width:1.0;"/><line style="stroke:#181818;stroke-width:1.0;" x1="257.5" x2="492" y1="116.6953" y2="116.6953"/><text fill="#000000" font-family="sans-serif" font-size="13" lengthAdjust="spacing" textLength="213" x="264.5" y="111.6294">Processor.ProcessSignal(InitArgs)</text><polygon fill="#181818" points="268.5,141.8281,258.5,145.8281,268.5,149.8281,264.5,145.8281" style="stroke:#181818;stroke-width:1.0;"/><line style="stroke:#181818;stroke-width:1.0;" x1="262.5" x2="497" y1="145.8281" y2="145.8281"/><text fill="#000000" font-family="sans-serif" font-size="13" lengthAdjust="spacing" textLength="198" x="274.5" y="140.7622">SignalResult(Changes,[Action])</text><path d="M180,158.8281 L180,183.8281 L292,183.8281 L292,168.8281 L282,158.8281 L180,158.8281 " fill="#FFAAAA" style="stroke:#181818;stroke-width:0.5;"/><path d="M282,158.8281 L282,168.8281 L292,168.8281 L282,158.8281 " fill="#FFAAAA" style="stroke:#181818;stroke-width:0.5;"/><text fill="#000000" font-family="sans-serif" font-size="13" lengthAdjust="spacing" textLength="91" x="186" y="175.895">store changes</text><path d="M175,193.9609 L175,218.9609 L296,218.9609 L296,203.9609 L286,193.9609 L175,193.9609 " fill="#FFAAAA" style="stroke:#181818;stroke-width:0.5;"/><path d="M286,193.9609 L286,203.9609 L296,203.9609 L286,193.9609 " fill="#FFAAAA" style="stroke:#181818;stroke-width:0.5;"/><text fill="#000000" font-family="sans-serif" font-size="13" lengthAdjust="spacing" textLength="100" x="181" y="211.0278">schedule action</text><path d="M200,229.0938 L200,254.0938 L271,254.0938 L271,239.0938 L261,229.0938 L200,229.0938 " fill="#FFAAAA" style="stroke:#181818;stroke-width:0.5;"/><path d="M261,229.0938 L261,239.0938 L271,239.0938 L261,229.0938 " fill="#FFAAAA" style="stroke:#181818;stroke-width:0.5;"/><text fill="#000000" font-family="sans-serif" font-size="13" lengthAdjust="spacing" textLength="37" x="212.5" y="246.1606">notify</text><polygon fill="#181818" points="33,276.3594,23,280.3594,33,284.3594,29,280.3594" style="stroke:#181818;stroke-width:1.0;"/><line style="stroke:#181818;stroke-width:1.0;" x1="27" x2="213.5" y1="280.3594" y2="280.3594"/><text fill="#000000" font-family="sans-serif" font-size="13" lengthAdjust="spacing" textLength="15" x="39" y="275.2935">ok</text><!--SRC=[VO_FYi903CRlUOgW5nVK1v1bORPG43mKUvGzZ6DsEbWdPIOLVVlDJZtenPpov_SbNmQR9BWms2XeAe0Ztt3M9FQ9SkOqm_ak-4w- -v5WU6RRbxAfWE89LGsl_HR0LBZwKW5kq8p25oiSrwqejTZ682Rv_07G5Ahvf_IyAzVNZwmDFjh-YLRuSpN1qsnFUUnbKNKsUihBWt4IEFxetiX2o5TAwc2fFd5UrqPZWrau4Rf9yevp7Pt6dj2MfMz8dOJVU_bOxPMF-Vm7]--></g></svg>